<?xml version="1.0" encoding="UTF-8" standalone="no"?>
<!-- Created with Inkscape (http://www.inkscape.org/) -->

<svg
   xmlns:dc="http://purl.org/dc/elements/1.1/"
   xmlns:cc="http://creativecommons.org/ns#"
   xmlns:rdf="http://www.w3.org/1999/02/22-rdf-syntax-ns#"
   xmlns:svg="http://www.w3.org/2000/svg"
   xmlns="http://www.w3.org/2000/svg"
   xmlns:sodipodi="http://sodipodi.sourceforge.net/DTD/sodipodi-0.dtd"
   xmlns:inkscape="http://www.inkscape.org/namespaces/inkscape"
   width="78.030159mm"
   height="75.892242mm"
   viewBox="0 0 276.48482 268.90952"
   id="svg2"
   version="1.1"
   inkscape:version="0.91 r13725"
   inkscape:export-filename="/home/kshitij/Workspace/WorldVoting/FIles/discussion_icon.png"
   inkscape:export-xdpi="90"
   inkscape:export-ydpi="90"
   sodipodi:docname="discussion_icon.svg">
  <defs
     id="defs4" />
  <sodipodi:namedview
     id="base"
     pagecolor="#ffffff"
     bordercolor="#666666"
     borderopacity="1.0"
     inkscape:pageopacity="0.0"
     inkscape:pageshadow="2"
     inkscape:zoom="0.24748737"
     inkscape:cx="-440.60375"
     inkscape:cy="-146.21448"
     inkscape:document-units="px"
     inkscape:current-layer="layer1"
     showgrid="false"
     fit-margin-top="0"
     fit-margin-left="0"
     fit-margin-right="0"
     fit-margin-bottom="0"
     inkscape:window-width="1366"
     inkscape:window-height="744"
     inkscape:window-x="0"
     inkscape:window-y="24"
     inkscape:window-maximized="1" />
  <metadata
     id="metadata7">
    <rdf:RDF>
      <cc:Work
         rdf:about="">
        <dc:format>image/svg+xml</dc:format>
        <dc:type
           rdf:resource="http://purl.org/dc/dcmitype/StillImage" />
        <dc:title />
      </cc:Work>
    </rdf:RDF>
  </metadata>
  <g
     inkscape:label="Layer 1"
     inkscape:groupmode="layer"
     id="layer1"
     transform="translate(-37.591347,-32.343119)">
    <path
       style="fill:#1e4372;fill-opacity:1"
       d="m 127.65237,297.85686 c 12.6712,-3.7454 28.3236,-10.5304 41.0854,-17.8097 9.2413,-5.2714 10.9146,-6.6029 10.9146,-8.6859 0,-1.6903 -1.0953,-3.2071 -3.5,-4.847 -3.0787,-2.0995 -4.2825,-2.3218 -10,-1.8463 -3.575,0.2974 -9.65,1.0458 -13.5,1.6633 -12.125,1.9445 -24.0195,-0.4906 -31.9527,-6.5416 -4.963,-3.7854 -9.1653,-10.1139 -13.1914,-19.8656 -3.9194,-9.493 -6.2274,-11.8264 -11.278601,-11.4027 l -3.5773,0.3 0.068,24.5 c 0.086,31.0261 1.7436,38.877 9.606201,45.493 3.0176,2.5391 3.7508,2.7056 9.7939,2.2236 3.5927,-0.2865 10.5821,-1.718 15.5321,-3.1811 z m 143.888,-2.3701 c 2.5318,-2.2332 4.4653,-7.0327 6.275,-15.5765 2.1208,-10.0124 2.9866,-58.0439 1.1102,-61.5889 -1.9699,-3.7216 -5.0912,-3.6583 -9.2376,0.1875 -2.9297,2.7172 -4.3525,5.6053 -7.9171,16.0702 -4.9808,14.6224 -9.566,22.2323 -16.3758,27.1778 -7.5209,5.462 -13.3091,6.8078 -28.6484,6.6613 -11.8655,-0.1133 -13.557,0.086 -15.8174,1.864 -3.1213,2.4553 -4.0547,5.6186 -2.2039,7.4694 0.7672,0.7672 5.1146,2.6271 9.6609,4.133 4.5464,1.506 13.9247,4.8721 20.8408,7.4803 22.128,8.3448 37.304,10.5405 42.3133,6.1219 z m -36.3312,-39.1646 c 1.9563,-0.5435 4.8525,-2.3405 6.4361,-3.9934 3.8437,-4.012 4.6677,-12.8363 1.6473,-17.6415 -7.02,-11.1686 -22.1915,-12.4655 -28.8703,-2.468 -4.2248,6.3241 -2.2755,15.7079 4.3058,20.7277 5.3621,4.0898 10.2818,5.0974 16.4811,3.3752 z m -89.9011,-2.7524 c 6.2595,-3.6962 8.477,-13.0565 4.9388,-20.8473 -2.5147,-5.5374 -7.1431,-8.6694 -13.5029,-9.1376 -6.3546,-0.4678 -10.6421,1.9549 -13.5513,7.6575 -3.6062,7.0687 -2.1979,14.8438 3.6908,20.3766 5.1528,4.8413 12.2558,5.5934 18.4246,1.9508 z m -56.700501,-43.8695 c 2.2967,-0.8814 4.5448,-5.6816 4.5448,-9.7044 0,-1.8836 -1.5064,-6.7435 -3.3476,-10.7996 -7.5296,-16.5885 -9.4921,-26.0488 -7.2328,-34.8675 2.6924,-10.5098 8.691,-17.4796 21.464201,-24.9395 7.9409,-4.6377 11.1162,-8.103 11.1162,-12.1313 0,-2.7555 -2.2109,-5.9366 -4.1259,-5.9366 -1.8001,0 -25.864001,5.9389 -36.693841,9.0559 -12.77009,3.6754 -27.44218,10.5569 -31.92381,14.9728 -7.42525,7.3164 -6.45882,14.2384 4.23706,30.3477 10.48467,15.7912 30.26899,38.6633 37.00649,42.7822 3.4934,2.1356 2.9308,1.9971 4.9552,1.2203 z m 193.864601,-14.6289 c 10.6855,-13.1493 27.146,-43.271 30.1704,-55.2101 2.1488,-8.4826 1.9306,-11.8863 -0.984,-15.3501 -5.1644,-6.1375 -16.005,-9.2234 -41.0339,-11.6807 -8.7848,-0.8624 -18.6517,-2.0413 -21.9265,-2.6196 -5.3189,-0.9393 -6.0955,-0.8582 -7.2788,0.7601 -1.5809,2.1619 -0.7852,7.0092 1.5943,9.7115 0.9012,1.0236 5.0284,3.567 9.1715,5.652 9.6601,4.8614 17.1413,11.5996 20.4996,18.4637 3.723,7.6095 3.758,19.2934 0.098,32.5232 -3.1467,11.3728 -3.2525,14.4668 -0.6409,18.75 2.8408,4.6593 5.9786,4.3556 10.3307,-1 z m -164.8424,-18.8653 c 7.9294,-2.2014 13.9024,-11.2508 12.1182,-18.3598 -0.8813,-3.5112 -6.4687,-9.5739 -10.2979,-11.1738 -8.6192,-3.6014 -20.223201,-0.5213 -25.107201,6.6642 -3.3739,4.9636 -2.7422,12.7305 1.3936,17.133 5.708601,6.0768 13.404201,8.0931 21.893301,5.7364 z m 139.2519,-7.8485 c 10.9846,-4.9864 11.1339,-20.6744 0.2507,-26.3515 -4.4224,-2.307 -15.1773,-1.6745 -18.9095,1.112 -4.5738,3.4149 -6.5705,7.0696 -6.5705,12.0267 0,11.6732 13.2893,18.6329 25.2293,13.2128 z m -63.0197,-42.0007 c 9.7236,-5.9287 9.4934,-23.2024 -0.4098,-30.755904 -4.7864,-3.6508 -13.3671,-4.2893 -18.059,-1.3438 -5.1445,3.2295 -7.2328,7.551004 -7.2371,14.976404 0,7.5394 2.9139,13.5583 8.2218,16.9573 4.3853,2.8082 13.0164,2.8901 17.4841,0.166 z m -51.4049,-23.4675 c 1.9712,-1.3377 6.6465,-4.964304 10.3896,-8.059104 14.4525,-11.9495 26.3853,-15.5019 39.0992,-11.6402 6.7247,2.0426 9.0682,3.536 23.0342,14.6785 5.1783,4.131504 10.9064,4.718704 14.1723,1.4528 2.5121,-2.5121 2.5011,-3.7485 -0.067,-7.5 -1.1294,-1.65 -5.8012,-10.65 -10.3817,-20 -8.4185,-17.1839 -16.2671,-30.169 -20.6732,-34.2022 -3.0732,-2.8132 -9.0203,-5.304 -12.5964,-5.2758 -5.0298,0.04 -11.3994,3.8691 -19.5154,11.7327 -12.1312,11.7539 -25.8753,30.0921 -34.6599,46.2453 -6.1541,11.316204 -5.4287,15.000004 2.9536,15.000004 3.2874,0 5.7163,-0.7165 8.2443,-2.432 z"
       id="path4201-3"
       inkscape:connector-curvature="0"
       sodipodi:nodetypes="csssssssscsssccsssssssssssssssssssssssssssssssssssscssssssssssccsssssssssssssscsscssssssssssscc" />
  </g>
</svg>
